<?xml version="1.0" encoding="utf-8"?>
<!-- Generator: Adobe Illustrator 16.0.0, SVG Export Plug-In . SVG Version: 6.00 Build 0)  -->
<!DOCTYPE svg PUBLIC "-//W3C//DTD SVG 1.1//EN" "http://www.w3.org/Graphics/SVG/1.1/DTD/svg11.dtd">
<svg version="1.1" id="Warstwa_1" xmlns="http://www.w3.org/2000/svg" xmlns:xlink="http://www.w3.org/1999/xlink" x="0px" y="0px"
	 width="227.901px" height="62.991px" viewBox="0 0 227.901 62.991" enable-background="new 0 0 227.901 62.991"
	 xml:space="preserve">
<path fill-rule="evenodd" clip-rule="evenodd" fill="#006BA0" d="M227.897,52.415c0,1.473,0.02,2.946,0,4.419
	c-0.02,1.498-0.85,2.291-2.306,2.351c-1.419,0.06-2.827,0.026-4.244,0.018c-1.659-0.015-2.526-0.953-2.565-2.532
	c-0.068-2.884-0.068-5.775,0.01-8.657c0.038-1.492,0.857-2.416,2.449-2.438c1.418-0.017,2.836-0.051,4.244,0.007
	c1.688,0.07,2.383,0.834,2.412,2.587C227.926,49.583,227.906,50.999,227.897,52.415z"/>
<path fill-rule="evenodd" clip-rule="evenodd" fill="#951A1C" d="M227.897,20.867c0,1.416,0.009,2.831,0,4.245
	c0,1.493-0.771,2.327-2.258,2.38c-1.467,0.053-2.941,0.022-4.417,0.017c-1.61-0.007-2.401-0.95-2.44-2.44
	c-0.077-2.886-0.068-5.777,0-8.664c0.039-1.584,0.916-2.51,2.574-2.527c1.408-0.012,2.836-0.056,4.245,0.022
	c1.428,0.084,2.286,0.858,2.296,2.37C227.906,17.8,227.897,19.336,227.897,20.867z"/>
<g>
	<g>
		<path fill="#006BA0" d="M69.899,5.283H83.71c3.592,0,6.673,0.333,9.242,0.999c2.569,0.667,4.9,1.915,6.994,3.747
			c5.448,4.663,8.172,11.752,8.172,21.268c0,3.141-0.273,6.008-0.82,8.601c-0.548,2.593-1.392,4.931-2.534,7.012
			c-1.142,2.082-2.604,3.943-4.389,5.585c-1.404,1.261-2.938,2.272-4.604,3.033c-1.666,0.762-3.456,1.297-5.371,1.606
			c-1.915,0.31-4.074,0.464-6.477,0.464H70.113c-1.927,0-3.378-0.291-4.354-0.875c-0.976-0.583-1.611-1.403-1.909-2.462
			s-0.445-2.432-0.445-4.122V11.778c0-2.284,0.511-3.937,1.534-4.96C65.962,5.795,67.615,5.283,69.899,5.283z M74.003,13.669v35.507
			h8.029c1.761,0,3.141-0.047,4.14-0.143c0.999-0.095,2.034-0.333,3.104-0.714c1.071-0.38,1.999-0.916,2.784-1.605
			c3.544-2.998,5.316-8.16,5.316-15.488c0-5.162-0.779-9.028-2.337-11.598c-1.559-2.569-3.479-4.205-5.764-4.907
			c-2.283-0.701-5.044-1.053-8.278-1.053H74.003z"/>
		<path fill="#006BA0" d="M151.904,13.455h-23.873v12.847h21.982c1.617,0,2.824,0.363,3.622,1.088
			c0.796,0.726,1.195,1.683,1.195,2.873c0,1.19-0.393,2.159-1.178,2.908c-0.785,0.75-1.999,1.124-3.64,1.124h-21.982v14.881h24.694
			c1.665,0,2.92,0.387,3.765,1.16c0.844,0.773,1.267,1.802,1.267,3.086c0,1.237-0.423,2.243-1.267,3.016
			c-0.845,0.773-2.1,1.16-3.765,1.16h-28.798c-2.309,0-3.968-0.511-4.979-1.535c-1.012-1.022-1.517-2.676-1.517-4.96V11.778
			c0-1.522,0.226-2.766,0.678-3.729c0.452-0.964,1.16-1.665,2.123-2.105c0.964-0.44,2.195-0.66,3.694-0.66h27.977
			c1.689,0,2.944,0.375,3.765,1.124c0.821,0.749,1.231,1.73,1.231,2.944c0,1.237-0.41,2.23-1.231,2.98
			C154.849,13.08,153.594,13.455,151.904,13.455z"/>
		<path fill="#006BA0" d="M179.989,10.743l20.376,30.833V10.458c0-2.022,0.434-3.539,1.303-4.55
			c0.868-1.011,2.039-1.517,3.515-1.517c1.522,0,2.724,0.505,3.604,1.517c0.88,1.011,1.32,2.528,1.32,4.55v41.145
			c0,4.592-1.903,6.887-5.71,6.887c-0.952,0-1.809-0.137-2.569-0.41c-0.762-0.274-1.476-0.708-2.141-1.303
			c-0.667-0.594-1.285-1.29-1.856-2.087c-0.57-0.797-1.142-1.611-1.713-2.445L176.242,21.77v30.654c0,1.999-0.464,3.509-1.392,4.532
			c-0.929,1.023-2.118,1.535-3.569,1.535c-1.498,0-2.7-0.518-3.604-1.552c-0.904-1.035-1.356-2.539-1.356-4.514v-40.36
			c0-1.713,0.19-3.057,0.571-4.032c0.451-1.07,1.201-1.945,2.248-2.623c1.047-0.678,2.177-1.017,3.39-1.017
			c0.951,0,1.767,0.155,2.444,0.464c0.679,0.309,1.272,0.726,1.785,1.249c0.511,0.523,1.034,1.201,1.569,2.034
			C178.865,8.971,179.418,9.839,179.989,10.743z"/>
	</g>
</g>
<path fill="#951A1C" d="M54.64,50.818L38.735,11.507c-0.752-1.965-1.369-3.535-1.851-4.717c-0.493-1.174-1.081-2.274-1.794-3.301
	c-0.704-1.022-1.63-1.862-2.777-2.513C31.163,0.326,29.727,0,28.009,0c-1.688,0-3.105,0.326-4.263,0.977
	c-1.147,0.651-2.073,1.502-2.778,2.553c-0.704,1.054-1.369,2.375-1.997,3.969c-0.626,1.591-1.157,2.956-1.601,4.094L1.793,51.146
	c-0.637,1.58-1.099,2.812-1.369,3.699C0.145,55.732,0,56.591,0,57.42c0,1.442,0.599,2.727,1.793,3.868
	c1.187,1.133,2.557,1.703,4.109,1.703c1.833,0,3.144-0.536,3.944-1.602c0.811-1.066,1.775-3.125,2.913-6.171l1.157-3.098
	l4.997-13.979l0,0l9.009-25.138l4.986,13.656l0,0l10.609,28.807c0.348,0.852,0.743,1.782,1.216,2.848
	c0.54,1.232,1.041,2.146,1.513,2.742c0.473,0.598,1.052,1.068,1.747,1.413c0.694,0.347,1.524,0.521,2.498,0.521
	c1.659,0,3.077-0.591,4.254-1.768c1.176-1.176,1.765-2.474,1.765-3.884C56.511,55.983,55.894,53.808,54.64,50.818z"/>
</svg>
