<?xml version="1.0" encoding="utf-8"?>
<!-- Generator: Adobe Illustrator 16.0.3, SVG Export Plug-In . SVG Version: 6.00 Build 0)  -->
<!DOCTYPE svg PUBLIC "-//W3C//DTD SVG 1.1//EN" "http://www.w3.org/Graphics/SVG/1.1/DTD/svg11.dtd">
<svg version="1.1" id="Warstwa_1" xmlns="http://www.w3.org/2000/svg" xmlns:xlink="http://www.w3.org/1999/xlink" x="0px" y="0px"
	 width="175.758px" height="54.545px" viewBox="0 0 175.758 54.545" enable-background="new 0 0 175.758 54.545"
	 xml:space="preserve">
<g>
	<g>
		<path fill="#A8A8A8" d="M170.111,43.978c0,1.059,0.013,2.115,0,3.176c-0.019,1.076-0.613,1.648-1.662,1.693
			c-1.018,0.043-2.031,0.016-3.051,0.012c-1.195-0.012-1.816-0.682-1.847-1.819c-0.048-2.076-0.048-4.156,0.009-6.228
			c0.025-1.069,0.616-1.74,1.76-1.752c1.022-0.014,2.041-0.039,3.057,0.004c1.212,0.052,1.713,0.601,1.734,1.863
			C170.129,41.937,170.115,42.957,170.111,43.978z"/>
		<path fill="#FFFFFF" d="M170.111,21.285c0,1.019,0.004,2.037,0,3.055c0,1.074-0.557,1.67-1.627,1.713
			c-1.053,0.035-2.114,0.013-3.176,0.009c-1.156-0.004-1.728-0.682-1.757-1.756c-0.057-2.076-0.048-4.155,0-6.231
			c0.029-1.139,0.66-1.804,1.855-1.816c1.01-0.009,2.036-0.039,3.051,0.017c1.026,0.056,1.644,0.617,1.651,1.7
			C170.115,19.08,170.111,20.185,170.111,21.285z"/>
		<g>
			<g>
				<g enable-background="new    ">
					<path fill="#A8A8A8" d="M56.476,10.074h9.933c2.583,0,4.799,0.24,6.647,0.719c1.848,0.479,3.525,1.378,5.031,2.695
						c3.918,3.354,5.877,8.453,5.877,15.297c0,2.259-0.197,4.32-0.59,6.186s-1.001,3.546-1.822,5.043
						c-0.821,1.498-1.874,2.837-3.157,4.018c-1.01,0.907-2.114,1.634-3.311,2.182c-1.198,0.548-2.486,0.933-3.863,1.154
						c-1.377,0.223-2.931,0.334-4.659,0.334H56.63c-1.386,0-2.43-0.209-3.131-0.629c-0.702-0.419-1.16-1.01-1.373-1.771
						c-0.214-0.762-0.321-1.75-0.321-2.965V14.745c0-1.643,0.368-2.831,1.104-3.567C53.644,10.442,54.833,10.074,56.476,10.074z
						 M59.427,16.105v25.538h5.775c1.266,0,2.259-0.034,2.978-0.103s1.463-0.239,2.233-0.513s1.438-0.659,2.002-1.155
						c2.549-2.156,3.824-5.869,3.824-11.14c0-3.713-0.561-6.493-1.681-8.341c-1.121-1.849-2.502-3.024-4.145-3.529
						s-3.628-0.758-5.955-0.758H59.427z"/>
					<path fill="#A8A8A8" d="M115.457,15.952H98.286v9.239h15.811c1.163,0,2.032,0.262,2.604,0.783
						c0.574,0.522,0.86,1.211,0.86,2.066s-0.282,1.553-0.847,2.092s-1.438,0.809-2.618,0.809H98.286v10.702h17.761
						c1.197,0,2.101,0.278,2.709,0.835c0.606,0.556,0.91,1.296,0.91,2.22c0,0.89-0.304,1.613-0.91,2.169
						c-0.608,0.556-1.512,0.834-2.709,0.834H95.334c-1.659,0-2.854-0.368-3.58-1.104c-0.728-0.735-1.091-1.925-1.091-3.567V14.745
						c0-1.095,0.163-1.988,0.487-2.682c0.325-0.693,0.834-1.197,1.527-1.515c0.693-0.316,1.578-0.475,2.656-0.475h20.123
						c1.215,0,2.117,0.27,2.708,0.809s0.886,1.245,0.886,2.117c0,0.89-0.295,1.604-0.886,2.144S116.672,15.952,115.457,15.952z"/>
					<path fill="#A8A8A8" d="M135.656,14.001l14.656,22.176V13.796c0-1.454,0.312-2.545,0.937-3.272
						c0.624-0.728,1.467-1.091,2.528-1.091c1.095,0,1.959,0.363,2.592,1.091s0.95,1.818,0.95,3.272V43.39
						c0,3.302-1.369,4.953-4.106,4.953c-0.686,0-1.301-0.099-1.848-0.295c-0.549-0.197-1.063-0.509-1.541-0.937
						s-0.924-0.929-1.334-1.502c-0.411-0.573-0.822-1.159-1.232-1.758l-14.296-21.92v22.048c0,1.438-0.334,2.524-1.001,3.26
						c-0.668,0.735-1.523,1.104-2.566,1.104c-1.078,0-1.943-0.372-2.593-1.116c-0.65-0.744-0.976-1.826-0.976-3.247V14.951
						c0-1.232,0.137-2.199,0.411-2.9c0.325-0.771,0.864-1.399,1.616-1.887c0.754-0.487,1.566-0.731,2.439-0.731
						c0.684,0,1.27,0.111,1.758,0.334c0.487,0.223,0.915,0.521,1.283,0.897c0.367,0.377,0.744,0.864,1.129,1.464
						C134.848,12.727,135.246,13.352,135.656,14.001z"/>
				</g>
			</g>
		</g>
		<path fill="#FFFFFF" d="M45.494,42.826L34.055,14.554c-0.539-1.411-0.983-2.542-1.329-3.392c-0.354-0.846-0.776-1.636-1.29-2.378
			c-0.509-0.733-1.174-1.337-1.998-1.804c-0.828-0.47-1.86-0.703-3.094-0.703c-1.217,0-2.235,0.233-3.068,0.703
			c-0.824,0.466-1.493,1.079-1.998,1.834c-0.505,0.759-0.984,1.713-1.437,2.856c-0.449,1.144-0.833,2.127-1.152,2.943L7.486,43.063
			c-0.457,1.136-0.79,2.023-0.983,2.662c-0.203,0.64-0.307,1.256-0.307,1.853c0,1.034,0.432,1.959,1.29,2.782
			c0.854,0.812,1.838,1.222,2.956,1.222c1.316,0,2.261-0.384,2.835-1.151c0.583-0.765,1.277-2.248,2.097-4.437l0.833-2.229
			l3.594-10.052l0,0l6.477-18.08l3.586,9.821l0,0l7.633,20.717c0.25,0.612,0.531,1.282,0.872,2.051
			c0.388,0.885,0.751,1.545,1.092,1.973c0.336,0.432,0.755,0.768,1.255,1.014c0.497,0.25,1.096,0.375,1.795,0.375
			c1.195,0,2.213-0.423,3.059-1.27c0.846-0.851,1.269-1.781,1.269-2.795C46.841,46.546,46.396,44.976,45.494,42.826z"/>
	</g>
</g>
</svg>
