<?xml version="1.0" encoding="utf-8"?>
<!-- Generator: Adobe Illustrator 16.0.3, SVG Export Plug-In . SVG Version: 6.00 Build 0)  -->
<!DOCTYPE svg PUBLIC "-//W3C//DTD SVG 1.1//EN" "http://www.w3.org/Graphics/SVG/1.1/DTD/svg11.dtd">
<svg version="1.1" id="Warstwa_1" xmlns="http://www.w3.org/2000/svg" xmlns:xlink="http://www.w3.org/1999/xlink" x="0px" y="0px"
	 width="175.758px" height="54.545px" viewBox="0 0 175.758 54.545" enable-background="new 0 0 175.758 54.545"
	 xml:space="preserve">
<g>
	<g>
		<path fill-rule="evenodd" clip-rule="evenodd" fill="#A8A8A8" d="M170.111,43.978c0,1.058,0.013,2.115,0,3.176
			c-0.018,1.075-0.613,1.648-1.662,1.692c-1.018,0.043-2.031,0.017-3.051,0.013c-1.195-0.013-1.816-0.682-1.846-1.82
			c-0.048-2.076-0.048-4.156,0.008-6.228c0.026-1.069,0.617-1.739,1.761-1.752c1.022-0.013,2.041-0.038,3.056,0.005
			c1.212,0.051,1.713,0.6,1.734,1.863C170.129,41.937,170.115,42.957,170.111,43.978z"/>
		<path fill="#FFFFFF" d="M170.111,21.285c0,1.019,0.004,2.037,0,3.055c0,1.074-0.557,1.67-1.627,1.713
			c-1.053,0.035-2.114,0.013-3.176,0.009c-1.156-0.004-1.727-0.682-1.756-1.756c-0.057-2.076-0.048-4.155,0-6.231
			c0.029-1.139,0.66-1.804,1.855-1.816c1.01-0.009,2.036-0.039,3.051,0.017c1.026,0.056,1.644,0.617,1.652,1.7
			C170.115,19.08,170.111,20.185,170.111,21.285z"/>
		<g>
			<g>
				<text transform="matrix(1 0 0 1 47.6465 47.7007)" fill="#A8A8A8" font-family="'ArialRoundedMTBold'" font-size="52.5648">DEN</text>
			</g>
		</g>
		<path fill="#FFFFFF" d="M45.494,42.826L34.055,14.554c-0.539-1.411-0.983-2.542-1.329-3.392c-0.354-0.846-0.776-1.636-1.29-2.378
			c-0.509-0.733-1.174-1.337-1.998-1.804c-0.828-0.47-1.86-0.703-3.094-0.703c-1.217,0-2.235,0.233-3.068,0.703
			c-0.824,0.466-1.493,1.079-1.998,1.834c-0.505,0.759-0.984,1.713-1.437,2.856c-0.449,1.144-0.833,2.127-1.152,2.943L7.486,43.064
			c-0.457,1.135-0.79,2.023-0.983,2.662c-0.203,0.639-0.307,1.256-0.307,1.852c0,1.035,0.432,1.959,1.29,2.783
			c0.854,0.811,1.838,1.221,2.956,1.221c1.316,0,2.261-0.384,2.835-1.152c0.583-0.764,1.277-2.248,2.097-4.436l0.833-2.23
			l3.594-10.051l0,0l6.477-18.08l3.586,9.821l0,0l7.633,20.717c0.25,0.612,0.531,1.282,0.872,2.05
			c0.388,0.885,0.751,1.545,1.092,1.973c0.336,0.432,0.755,0.768,1.255,1.014c0.497,0.25,1.096,0.375,1.795,0.375
			c1.195,0,2.213-0.423,3.059-1.269c0.846-0.851,1.269-1.782,1.269-2.796C46.841,46.546,46.396,44.975,45.494,42.826z"/>
	</g>
</g>
</svg>
