<?xml version="1.0" encoding="utf-8"?>
<!-- Generator: Adobe Illustrator 16.0.0, SVG Export Plug-In . SVG Version: 6.00 Build 0)  -->
<!DOCTYPE svg PUBLIC "-//W3C//DTD SVG 1.1//EN" "http://www.w3.org/Graphics/SVG/1.1/DTD/svg11.dtd">
<svg version="1.1" id="Warstwa_1" xmlns="http://www.w3.org/2000/svg" xmlns:xlink="http://www.w3.org/1999/xlink" x="0px" y="0px"
	 width="395.757px" height="350.729px" viewBox="0 0 395.757 350.729" enable-background="new 0 0 395.757 350.729"
	 xml:space="preserve">
<g>
	<defs>
		<rect id="SVGID_1_" y="-4.313" width="395.757" height="357.119"/>
	</defs>
	<clipPath id="SVGID_2_">
		<use xlink:href="#SVGID_1_"  overflow="visible"/>
	</clipPath>
	<path clip-path="url(#SVGID_2_)" fill="#951A1C" d="M11.135,346.671l346.89-135.505c6.453-2.45,11.594-4.476,15.471-6.076
		c3.858-1.583,7.456-3.54,10.813-5.845c3.347-2.315,6.096-5.363,8.246-9.145c2.123-3.761,3.203-8.459,3.203-14.071
		c0-5.565-1.08-10.214-3.203-13.977c-2.15-3.761-4.928-6.8-8.371-9.134c-3.443-2.314-7.783-4.495-13.012-6.529
		c-5.219-2.045-9.693-3.781-13.426-5.237L-3.506,0.183c-5.17-2.074-9.202-3.578-12.114-4.496c-2.913-0.896-5.72-1.358-8.44-1.358
		c-4.746,0-8.951,1.962-12.683,5.854c-3.733,3.916-5.594,8.41-5.594,13.504c0,5.969,1.765,10.306,5.247,12.929
		c3.511,2.623,10.244,5.821,20.236,9.554l10.156,3.761l277.406,106.286v-0.039l82.418,29.563l-44.774,16.358l0,0L-4.114,310.195
		c-2.778,1.157-5.835,2.45-9.327,3.992c-4.041,1.766-7.031,3.425-8.979,4.977c-1.958,1.535-3.511,3.444-4.649,5.729
		c-1.138,2.257-1.698,4.978-1.698,8.15c0,5.459,1.938,10.109,5.797,13.977c3.858,3.857,8.111,5.786,12.722,5.786
		C-5.783,352.806,1.327,350.752,11.135,346.671z"/>
</g>
</svg>
